<mxfile host="65bd71144e">
    <diagram id="jigJVeFdSE6whz7Ngj_1" name="Page-1">
        <mxGraphModel dx="514" dy="306" grid="1" gridSize="10" guides="1" tooltips="1" connect="1" arrows="1" fold="1" page="1" pageScale="1" pageWidth="850" pageHeight="1100" math="0" shadow="0">
            <root>
                <mxCell id="0"/>
                <mxCell id="1" parent="0"/>
                <mxCell id="22" value="" style="rounded=0;whiteSpace=wrap;html=1;fontSize=10;" parent="1" vertex="1">
                    <mxGeometry x="300" y="240" width="200" height="120" as="geometry"/>
                </mxCell>
                <mxCell id="23" value="UserCancelled == false || paidMoney &amp;lt; Price(ItemSelected)" style="text;html=1;strokeColor=none;fillColor=none;align=center;verticalAlign=middle;whiteSpace=wrap;rounded=0;fontSize=10;" parent="1" vertex="1">
                    <mxGeometry x="300" y="240" width="160" height="30" as="geometry"/>
                </mxCell>
                <mxCell id="24" value="GiveItem(ItemSelected)" style="rounded=0;whiteSpace=wrap;html=1;fontSize=10;" parent="1" vertex="1">
                    <mxGeometry x="400" y="330" width="100" height="30" as="geometry"/>
                </mxCell>
                <mxCell id="25" value="" style="rounded=0;whiteSpace=wrap;html=1;fontSize=10;" parent="1" vertex="1">
                    <mxGeometry x="300" y="300" width="200" height="30" as="geometry"/>
                </mxCell>
                <mxCell id="26" value="" style="triangle;whiteSpace=wrap;html=1;direction=south;fontSize=10;" parent="1" vertex="1">
                    <mxGeometry x="300" y="300" width="200" height="30" as="geometry"/>
                </mxCell>
                <mxCell id="27" value="UserCancelled == true" style="text;html=1;strokeColor=none;fillColor=none;align=center;verticalAlign=middle;whiteSpace=wrap;rounded=0;fontSize=10;" parent="1" vertex="1">
                    <mxGeometry x="362.5" y="300" width="75" height="30" as="geometry"/>
                </mxCell>
                <mxCell id="28" value="Yes" style="text;html=1;strokeColor=none;fillColor=none;align=center;verticalAlign=middle;whiteSpace=wrap;rounded=0;fontSize=10;" parent="1" vertex="1">
                    <mxGeometry x="300" y="310" width="30" height="20" as="geometry"/>
                </mxCell>
                <mxCell id="29" value="No" style="text;html=1;strokeColor=none;fillColor=none;align=center;verticalAlign=middle;whiteSpace=wrap;rounded=0;fontSize=10;" parent="1" vertex="1">
                    <mxGeometry x="470" y="310" width="30" height="20" as="geometry"/>
                </mxCell>
                <mxCell id="30" value="GiveBackPaidMoney()" style="rounded=0;whiteSpace=wrap;html=1;fontSize=10;" parent="1" vertex="1">
                    <mxGeometry x="300" y="330" width="100" height="30" as="geometry"/>
                </mxCell>
                <mxCell id="33" style="edgeStyle=none;html=1;fontSize=10;dashed=1;endArrow=none;endFill=0;entryX=1;entryY=0;entryDx=0;entryDy=0;" parent="1" source="32" target="19" edge="1">
                    <mxGeometry relative="1" as="geometry"/>
                </mxCell>
                <mxCell id="32" value="Wait till user cancels &lt;br&gt;or item is fully paid&lt;br&gt;" style="shape=note;strokeWidth=2;fontSize=10;size=20;whiteSpace=wrap;html=1;fillColor=#fff2cc;strokeColor=#d6b656;fontColor=#666600;" parent="1" vertex="1">
                    <mxGeometry x="550" y="248" width="110" height="45" as="geometry"/>
                </mxCell>
                <mxCell id="15" value="ShowPrice(ItemSelected)" style="whiteSpace=wrap;html=1;container=0;fontSize=10;" parent="1" vertex="1">
                    <mxGeometry x="300" y="210" width="200" height="30" as="geometry"/>
                </mxCell>
                <mxCell id="19" value="ShowPaidMoney()" style="whiteSpace=wrap;html=1;container=0;fontSize=10;" parent="1" vertex="1">
                    <mxGeometry x="340" y="270" width="160" height="30" as="geometry"/>
                </mxCell>
                <mxCell id="34" value="GiveChange()" style="rounded=0;whiteSpace=wrap;html=1;fontSize=10;" vertex="1" parent="1">
                    <mxGeometry x="400" y="360" width="100" height="30" as="geometry"/>
                </mxCell>
                <mxCell id="35" value="" style="rounded=0;whiteSpace=wrap;html=1;fontSize=10;" vertex="1" parent="1">
                    <mxGeometry x="300" y="360" width="100" height="30" as="geometry"/>
                </mxCell>
            </root>
        </mxGraphModel>
    </diagram>
</mxfile>